<mxfile host="app.diagrams.net" modified="2021-10-01T01:12:58.474Z" agent="5.0 (Windows NT 10.0; Win64; x64) AppleWebKit/537.36 (KHTML, like Gecko) Chrome/93.0.4577.82 Safari/537.36 OPR/79.0.4143.50 (Edition utorrent)" etag="Kq-HsUV_uq-9VCBIPKJZ" version="15.4.0" type="github">
  <diagram id="R2lEEEUBdFMjLlhIrx00" name="Page-1">
    <mxGraphModel dx="868" dy="483" grid="1" gridSize="10" guides="1" tooltips="1" connect="1" arrows="1" fold="1" page="1" pageScale="1" pageWidth="850" pageHeight="1100" math="0" shadow="0" extFonts="Permanent Marker^https://fonts.googleapis.com/css?family=Permanent+Marker">
      <root>
        <mxCell id="0" />
        <mxCell id="1" parent="0" />
        <mxCell id="EE4DRP4h_-agsnP2JXx3-105" style="edgeStyle=orthogonalEdgeStyle;rounded=0;orthogonalLoop=1;jettySize=auto;html=1;exitX=1;exitY=0.5;exitDx=0;exitDy=0;entryX=0.5;entryY=1;entryDx=0;entryDy=0;fontSize=9;endArrow=none;endFill=0;" edge="1" parent="1" source="4wxQm1VJwezY7HKqNcHJ-29" target="EE4DRP4h_-agsnP2JXx3-15">
          <mxGeometry relative="1" as="geometry" />
        </mxCell>
        <mxCell id="4wxQm1VJwezY7HKqNcHJ-29" value="" style="triangle;whiteSpace=wrap;html=1;align=left;direction=north;" parent="1" vertex="1">
          <mxGeometry x="307.5" y="270" width="30" height="20" as="geometry" />
        </mxCell>
        <mxCell id="EE4DRP4h_-agsnP2JXx3-1" value="Coordenador" style="whiteSpace=wrap;html=1;align=center;" vertex="1" parent="1">
          <mxGeometry x="38" y="60" width="100" height="40" as="geometry" />
        </mxCell>
        <mxCell id="EE4DRP4h_-agsnP2JXx3-2" value="Cursos" style="whiteSpace=wrap;html=1;align=center;" vertex="1" parent="1">
          <mxGeometry x="558" y="220" width="100" height="40" as="geometry" />
        </mxCell>
        <mxCell id="EE4DRP4h_-agsnP2JXx3-82" style="edgeStyle=orthogonalEdgeStyle;rounded=0;orthogonalLoop=1;jettySize=auto;html=1;exitX=0.5;exitY=0;exitDx=0;exitDy=0;entryX=0.434;entryY=1.124;entryDx=0;entryDy=0;entryPerimeter=0;fontSize=10;endArrow=none;endFill=0;" edge="1" parent="1" source="EE4DRP4h_-agsnP2JXx3-3" target="EE4DRP4h_-agsnP2JXx3-1">
          <mxGeometry relative="1" as="geometry" />
        </mxCell>
        <mxCell id="EE4DRP4h_-agsnP2JXx3-83" style="edgeStyle=orthogonalEdgeStyle;rounded=0;orthogonalLoop=1;jettySize=auto;html=1;exitX=1;exitY=0.5;exitDx=0;exitDy=0;entryX=0;entryY=0.5;entryDx=0;entryDy=0;fontSize=10;endArrow=none;endFill=0;" edge="1" parent="1" source="EE4DRP4h_-agsnP2JXx3-3" target="EE4DRP4h_-agsnP2JXx3-71">
          <mxGeometry relative="1" as="geometry" />
        </mxCell>
        <mxCell id="EE4DRP4h_-agsnP2JXx3-3" value="Faculdade" style="whiteSpace=wrap;html=1;align=center;" vertex="1" parent="1">
          <mxGeometry x="33" y="135" width="100" height="40" as="geometry" />
        </mxCell>
        <mxCell id="EE4DRP4h_-agsnP2JXx3-81" style="edgeStyle=orthogonalEdgeStyle;rounded=0;orthogonalLoop=1;jettySize=auto;html=1;exitX=0.5;exitY=0;exitDx=0;exitDy=0;entryX=0.5;entryY=1;entryDx=0;entryDy=0;fontSize=10;endArrow=none;endFill=0;" edge="1" parent="1" source="EE4DRP4h_-agsnP2JXx3-4" target="EE4DRP4h_-agsnP2JXx3-3">
          <mxGeometry relative="1" as="geometry" />
        </mxCell>
        <mxCell id="EE4DRP4h_-agsnP2JXx3-4" value="Trabalha" style="shape=rhombus;perimeter=rhombusPerimeter;whiteSpace=wrap;html=1;align=center;" vertex="1" parent="1">
          <mxGeometry x="38" y="225" width="90" height="50" as="geometry" />
        </mxCell>
        <mxCell id="EE4DRP4h_-agsnP2JXx3-84" value="N" style="edgeStyle=orthogonalEdgeStyle;rounded=0;orthogonalLoop=1;jettySize=auto;html=1;exitX=0.5;exitY=0;exitDx=0;exitDy=0;entryX=0.5;entryY=1;entryDx=0;entryDy=0;fontSize=10;endArrow=none;endFill=0;" edge="1" parent="1" source="EE4DRP4h_-agsnP2JXx3-6" target="EE4DRP4h_-agsnP2JXx3-7">
          <mxGeometry x="-0.1667" y="-10" relative="1" as="geometry">
            <mxPoint as="offset" />
          </mxGeometry>
        </mxCell>
        <mxCell id="EE4DRP4h_-agsnP2JXx3-6" value="Alunos" style="whiteSpace=wrap;html=1;align=center;" vertex="1" parent="1">
          <mxGeometry x="520" y="370" width="100" height="40" as="geometry" />
        </mxCell>
        <mxCell id="EE4DRP4h_-agsnP2JXx3-56" style="edgeStyle=orthogonalEdgeStyle;rounded=0;orthogonalLoop=1;jettySize=auto;html=1;entryX=0.5;entryY=1;entryDx=0;entryDy=0;fontSize=10;endArrow=none;endFill=0;" edge="1" parent="1" source="EE4DRP4h_-agsnP2JXx3-7" target="EE4DRP4h_-agsnP2JXx3-2">
          <mxGeometry relative="1" as="geometry" />
        </mxCell>
        <mxCell id="EE4DRP4h_-agsnP2JXx3-7" value="São Matriculados" style="shape=rhombus;perimeter=rhombusPerimeter;whiteSpace=wrap;html=1;align=center;fontSize=9;" vertex="1" parent="1">
          <mxGeometry x="525" y="300" width="90" height="46" as="geometry" />
        </mxCell>
        <mxCell id="EE4DRP4h_-agsnP2JXx3-55" style="edgeStyle=orthogonalEdgeStyle;rounded=0;orthogonalLoop=1;jettySize=auto;html=1;exitX=0;exitY=1;exitDx=0;exitDy=0;entryX=1;entryY=1;entryDx=0;entryDy=0;fontSize=10;endArrow=none;endFill=0;" edge="1" parent="1" source="EE4DRP4h_-agsnP2JXx3-8" target="EE4DRP4h_-agsnP2JXx3-6">
          <mxGeometry relative="1" as="geometry" />
        </mxCell>
        <mxCell id="EE4DRP4h_-agsnP2JXx3-8" value="Nome" style="ellipse;whiteSpace=wrap;html=1;align=left;spacingLeft=30;fontSize=10;" vertex="1" parent="1">
          <mxGeometry x="642" y="400" width="28" height="16" as="geometry" />
        </mxCell>
        <mxCell id="EE4DRP4h_-agsnP2JXx3-54" style="edgeStyle=orthogonalEdgeStyle;rounded=0;orthogonalLoop=1;jettySize=auto;html=1;exitX=0;exitY=0.5;exitDx=0;exitDy=0;entryX=1;entryY=0;entryDx=0;entryDy=0;fontSize=10;endArrow=none;endFill=0;" edge="1" parent="1" source="EE4DRP4h_-agsnP2JXx3-9" target="EE4DRP4h_-agsnP2JXx3-6">
          <mxGeometry relative="1" as="geometry" />
        </mxCell>
        <mxCell id="EE4DRP4h_-agsnP2JXx3-9" value="Telefone" style="ellipse;whiteSpace=wrap;html=1;align=left;spacingLeft=30;fontSize=10;" vertex="1" parent="1">
          <mxGeometry x="642" y="354" width="28" height="16" as="geometry" />
        </mxCell>
        <mxCell id="EE4DRP4h_-agsnP2JXx3-52" style="edgeStyle=orthogonalEdgeStyle;rounded=0;orthogonalLoop=1;jettySize=auto;html=1;exitX=0.5;exitY=0;exitDx=0;exitDy=0;entryX=0.5;entryY=1;entryDx=0;entryDy=0;fontSize=10;endArrow=none;endFill=0;" edge="1" parent="1" source="EE4DRP4h_-agsnP2JXx3-10" target="EE4DRP4h_-agsnP2JXx3-24">
          <mxGeometry relative="1" as="geometry" />
        </mxCell>
        <mxCell id="EE4DRP4h_-agsnP2JXx3-10" value="Mensalidades" style="whiteSpace=wrap;html=1;align=center;" vertex="1" parent="1">
          <mxGeometry x="520" y="530" width="100" height="40" as="geometry" />
        </mxCell>
        <mxCell id="EE4DRP4h_-agsnP2JXx3-50" style="edgeStyle=orthogonalEdgeStyle;rounded=0;orthogonalLoop=1;jettySize=auto;html=1;entryX=0.1;entryY=0.067;entryDx=0;entryDy=0;entryPerimeter=0;fontSize=10;endArrow=none;endFill=0;" edge="1" parent="1" source="EE4DRP4h_-agsnP2JXx3-11" target="EE4DRP4h_-agsnP2JXx3-25">
          <mxGeometry relative="1" as="geometry">
            <Array as="points">
              <mxPoint x="473" y="630" />
              <mxPoint x="560" y="630" />
            </Array>
          </mxGeometry>
        </mxCell>
        <mxCell id="EE4DRP4h_-agsnP2JXx3-11" value="Primeira Mensalidade" style="whiteSpace=wrap;html=1;align=center;fontSize=9;" vertex="1" parent="1">
          <mxGeometry x="435" y="660" width="75" height="30" as="geometry" />
        </mxCell>
        <mxCell id="EE4DRP4h_-agsnP2JXx3-29" style="edgeStyle=orthogonalEdgeStyle;rounded=0;orthogonalLoop=1;jettySize=auto;html=1;exitX=0.25;exitY=0;exitDx=0;exitDy=0;entryX=0;entryY=0.25;entryDx=0;entryDy=0;fontSize=10;endArrow=none;endFill=0;" edge="1" parent="1" source="EE4DRP4h_-agsnP2JXx3-12" target="EE4DRP4h_-agsnP2JXx3-25">
          <mxGeometry relative="1" as="geometry" />
        </mxCell>
        <mxCell id="EE4DRP4h_-agsnP2JXx3-12" value="Três Mensalidades" style="whiteSpace=wrap;html=1;align=center;fontSize=9;" vertex="1" parent="1">
          <mxGeometry x="520" y="660" width="75" height="30" as="geometry" />
        </mxCell>
        <mxCell id="EE4DRP4h_-agsnP2JXx3-30" style="edgeStyle=orthogonalEdgeStyle;rounded=0;orthogonalLoop=1;jettySize=auto;html=1;exitX=0.25;exitY=0;exitDx=0;exitDy=0;entryX=0;entryY=0.75;entryDx=0;entryDy=0;fontSize=10;endArrow=none;endFill=0;" edge="1" parent="1" source="EE4DRP4h_-agsnP2JXx3-13" target="EE4DRP4h_-agsnP2JXx3-25">
          <mxGeometry relative="1" as="geometry" />
        </mxCell>
        <mxCell id="EE4DRP4h_-agsnP2JXx3-13" value="Seis Mensalidades" style="whiteSpace=wrap;html=1;align=center;fontSize=9;" vertex="1" parent="1">
          <mxGeometry x="595" y="660" width="75" height="30" as="geometry" />
        </mxCell>
        <mxCell id="EE4DRP4h_-agsnP2JXx3-31" style="edgeStyle=orthogonalEdgeStyle;rounded=0;orthogonalLoop=1;jettySize=auto;html=1;exitX=0.25;exitY=0;exitDx=0;exitDy=0;entryX=-0.024;entryY=0.935;entryDx=0;entryDy=0;entryPerimeter=0;fontSize=10;endArrow=none;endFill=0;" edge="1" parent="1" source="EE4DRP4h_-agsnP2JXx3-14" target="EE4DRP4h_-agsnP2JXx3-25">
          <mxGeometry relative="1" as="geometry">
            <Array as="points">
              <mxPoint x="699" y="640" />
              <mxPoint x="630" y="640" />
              <mxPoint x="630" y="627" />
              <mxPoint x="586" y="627" />
            </Array>
          </mxGeometry>
        </mxCell>
        <mxCell id="EE4DRP4h_-agsnP2JXx3-14" value="Doze Mensalidades" style="whiteSpace=wrap;html=1;align=center;fontSize=9;" vertex="1" parent="1">
          <mxGeometry x="680" y="660" width="75" height="30" as="geometry" />
        </mxCell>
        <mxCell id="EE4DRP4h_-agsnP2JXx3-15" value="Módulos" style="whiteSpace=wrap;html=1;align=center;" vertex="1" parent="1">
          <mxGeometry x="285" y="225" width="75" height="30" as="geometry" />
        </mxCell>
        <mxCell id="EE4DRP4h_-agsnP2JXx3-99" style="edgeStyle=orthogonalEdgeStyle;rounded=0;orthogonalLoop=1;jettySize=auto;html=1;exitX=0.5;exitY=0;exitDx=0;exitDy=0;entryX=0.5;entryY=1;entryDx=0;entryDy=0;fontSize=9;endArrow=none;endFill=0;" edge="1" parent="1" source="EE4DRP4h_-agsnP2JXx3-17" target="EE4DRP4h_-agsnP2JXx3-4">
          <mxGeometry relative="1" as="geometry" />
        </mxCell>
        <mxCell id="EE4DRP4h_-agsnP2JXx3-17" value="Professores" style="whiteSpace=wrap;html=1;align=center;" vertex="1" parent="1">
          <mxGeometry x="20" y="311" width="100" height="40" as="geometry" />
        </mxCell>
        <mxCell id="EE4DRP4h_-agsnP2JXx3-59" value="1" style="edgeStyle=orthogonalEdgeStyle;rounded=0;orthogonalLoop=1;jettySize=auto;html=1;exitX=1;exitY=0.5;exitDx=0;exitDy=0;entryX=0;entryY=0.5;entryDx=0;entryDy=0;fontSize=10;endArrow=none;endFill=0;" edge="1" parent="1" source="EE4DRP4h_-agsnP2JXx3-18" target="EE4DRP4h_-agsnP2JXx3-19">
          <mxGeometry x="0.8182" y="10" relative="1" as="geometry">
            <mxPoint as="offset" />
          </mxGeometry>
        </mxCell>
        <mxCell id="EE4DRP4h_-agsnP2JXx3-60" value="1" style="edgeStyle=orthogonalEdgeStyle;rounded=0;orthogonalLoop=1;jettySize=auto;html=1;exitX=0;exitY=0.5;exitDx=0;exitDy=0;entryX=1;entryY=0.5;entryDx=0;entryDy=0;fontSize=10;endArrow=none;endFill=0;" edge="1" parent="1" source="EE4DRP4h_-agsnP2JXx3-18" target="EE4DRP4h_-agsnP2JXx3-1">
          <mxGeometry x="0.8182" y="-10" relative="1" as="geometry">
            <mxPoint as="offset" />
          </mxGeometry>
        </mxCell>
        <mxCell id="EE4DRP4h_-agsnP2JXx3-18" value="Necessita de" style="shape=rhombus;perimeter=rhombusPerimeter;whiteSpace=wrap;html=1;align=center;fontSize=11;" vertex="1" parent="1">
          <mxGeometry x="270" y="55" width="90" height="50" as="geometry" />
        </mxCell>
        <mxCell id="EE4DRP4h_-agsnP2JXx3-57" style="edgeStyle=orthogonalEdgeStyle;rounded=0;orthogonalLoop=1;jettySize=auto;html=1;exitX=1;exitY=0.5;exitDx=0;exitDy=0;entryX=0.5;entryY=0;entryDx=0;entryDy=0;fontSize=10;endArrow=none;endFill=0;" edge="1" parent="1" source="EE4DRP4h_-agsnP2JXx3-19" target="EE4DRP4h_-agsnP2JXx3-20">
          <mxGeometry relative="1" as="geometry" />
        </mxCell>
        <mxCell id="EE4DRP4h_-agsnP2JXx3-19" value="Sistema" style="whiteSpace=wrap;html=1;align=center;" vertex="1" parent="1">
          <mxGeometry x="470" y="60" width="100" height="40" as="geometry" />
        </mxCell>
        <mxCell id="EE4DRP4h_-agsnP2JXx3-58" value="N" style="edgeStyle=orthogonalEdgeStyle;rounded=0;orthogonalLoop=1;jettySize=auto;html=1;exitX=0.5;exitY=1;exitDx=0;exitDy=0;entryX=0.5;entryY=0;entryDx=0;entryDy=0;fontSize=10;endArrow=none;endFill=0;" edge="1" parent="1" source="EE4DRP4h_-agsnP2JXx3-20" target="EE4DRP4h_-agsnP2JXx3-2">
          <mxGeometry x="0.5" y="12" relative="1" as="geometry">
            <Array as="points">
              <mxPoint x="608" y="190" />
              <mxPoint x="608" y="190" />
            </Array>
            <mxPoint as="offset" />
          </mxGeometry>
        </mxCell>
        <mxCell id="EE4DRP4h_-agsnP2JXx3-20" value="Para coordenar" style="shape=rhombus;perimeter=rhombusPerimeter;whiteSpace=wrap;html=1;align=center;fontSize=9;" vertex="1" parent="1">
          <mxGeometry x="563" y="130" width="90" height="50" as="geometry" />
        </mxCell>
        <mxCell id="EE4DRP4h_-agsnP2JXx3-53" style="edgeStyle=orthogonalEdgeStyle;rounded=0;orthogonalLoop=1;jettySize=auto;html=1;exitX=0.5;exitY=0;exitDx=0;exitDy=0;entryX=0.47;entryY=1.048;entryDx=0;entryDy=0;entryPerimeter=0;fontSize=10;endArrow=none;endFill=0;" edge="1" parent="1" source="EE4DRP4h_-agsnP2JXx3-24" target="EE4DRP4h_-agsnP2JXx3-6">
          <mxGeometry relative="1" as="geometry" />
        </mxCell>
        <mxCell id="EE4DRP4h_-agsnP2JXx3-24" value="Deverão pagar" style="shape=rhombus;perimeter=rhombusPerimeter;whiteSpace=wrap;html=1;align=center;fontSize=10;" vertex="1" parent="1">
          <mxGeometry x="525" y="450" width="90" height="50" as="geometry" />
        </mxCell>
        <mxCell id="EE4DRP4h_-agsnP2JXx3-51" style="edgeStyle=orthogonalEdgeStyle;rounded=0;orthogonalLoop=1;jettySize=auto;html=1;entryX=0.5;entryY=1;entryDx=0;entryDy=0;fontSize=10;endArrow=none;endFill=0;" edge="1" parent="1" source="EE4DRP4h_-agsnP2JXx3-25" target="EE4DRP4h_-agsnP2JXx3-10">
          <mxGeometry relative="1" as="geometry" />
        </mxCell>
        <mxCell id="EE4DRP4h_-agsnP2JXx3-25" value="" style="triangle;whiteSpace=wrap;html=1;align=left;direction=north;" vertex="1" parent="1">
          <mxGeometry x="555" y="590" width="30" height="20" as="geometry" />
        </mxCell>
        <mxCell id="EE4DRP4h_-agsnP2JXx3-85" style="edgeStyle=orthogonalEdgeStyle;rounded=0;orthogonalLoop=1;jettySize=auto;html=1;exitX=0;exitY=0.5;exitDx=0;exitDy=0;entryX=1;entryY=0.25;entryDx=0;entryDy=0;fontSize=10;endArrow=none;endFill=0;" edge="1" parent="1" source="EE4DRP4h_-agsnP2JXx3-32" target="EE4DRP4h_-agsnP2JXx3-2">
          <mxGeometry relative="1" as="geometry" />
        </mxCell>
        <mxCell id="EE4DRP4h_-agsnP2JXx3-32" value="Código" style="ellipse;whiteSpace=wrap;html=1;align=left;spacingLeft=30;fontSize=10;" vertex="1" parent="1">
          <mxGeometry x="670" y="218" width="28" height="16" as="geometry" />
        </mxCell>
        <mxCell id="EE4DRP4h_-agsnP2JXx3-86" style="edgeStyle=orthogonalEdgeStyle;rounded=0;orthogonalLoop=1;jettySize=auto;html=1;exitX=0;exitY=0.5;exitDx=0;exitDy=0;entryX=1;entryY=0.5;entryDx=0;entryDy=0;fontSize=10;endArrow=none;endFill=0;" edge="1" parent="1" source="EE4DRP4h_-agsnP2JXx3-33" target="EE4DRP4h_-agsnP2JXx3-2">
          <mxGeometry relative="1" as="geometry">
            <Array as="points">
              <mxPoint x="680" y="240" />
            </Array>
          </mxGeometry>
        </mxCell>
        <mxCell id="EE4DRP4h_-agsnP2JXx3-33" value="Nome" style="ellipse;whiteSpace=wrap;html=1;align=left;spacingLeft=30;fontSize=10;" vertex="1" parent="1">
          <mxGeometry x="680" y="254" width="28" height="16" as="geometry" />
        </mxCell>
        <mxCell id="EE4DRP4h_-agsnP2JXx3-87" style="edgeStyle=orthogonalEdgeStyle;rounded=0;orthogonalLoop=1;jettySize=auto;html=1;exitX=0;exitY=0.5;exitDx=0;exitDy=0;entryX=0.989;entryY=0.865;entryDx=0;entryDy=0;entryPerimeter=0;fontSize=10;endArrow=none;endFill=0;" edge="1" parent="1" source="EE4DRP4h_-agsnP2JXx3-35" target="EE4DRP4h_-agsnP2JXx3-2">
          <mxGeometry relative="1" as="geometry" />
        </mxCell>
        <mxCell id="EE4DRP4h_-agsnP2JXx3-35" value="Carga-horária" style="ellipse;whiteSpace=wrap;html=1;align=left;spacingLeft=30;fontSize=10;" vertex="1" parent="1">
          <mxGeometry x="680" y="280" width="28" height="16" as="geometry" />
        </mxCell>
        <mxCell id="EE4DRP4h_-agsnP2JXx3-79" style="edgeStyle=orthogonalEdgeStyle;rounded=0;orthogonalLoop=1;jettySize=auto;html=1;exitX=0;exitY=0.5;exitDx=0;exitDy=0;entryX=1;entryY=0.25;entryDx=0;entryDy=0;fontSize=10;endArrow=none;endFill=0;" edge="1" parent="1" source="EE4DRP4h_-agsnP2JXx3-36" target="EE4DRP4h_-agsnP2JXx3-17">
          <mxGeometry relative="1" as="geometry" />
        </mxCell>
        <mxCell id="EE4DRP4h_-agsnP2JXx3-36" value="Nome" style="ellipse;whiteSpace=wrap;html=1;align=left;spacingLeft=30;fontSize=10;" vertex="1" parent="1">
          <mxGeometry x="150" y="290" width="28" height="16" as="geometry" />
        </mxCell>
        <mxCell id="EE4DRP4h_-agsnP2JXx3-80" style="edgeStyle=orthogonalEdgeStyle;rounded=0;orthogonalLoop=1;jettySize=auto;html=1;exitX=0;exitY=0.5;exitDx=0;exitDy=0;entryX=1;entryY=0.75;entryDx=0;entryDy=0;fontSize=10;endArrow=none;endFill=0;" edge="1" parent="1" source="EE4DRP4h_-agsnP2JXx3-37" target="EE4DRP4h_-agsnP2JXx3-17">
          <mxGeometry relative="1" as="geometry" />
        </mxCell>
        <mxCell id="EE4DRP4h_-agsnP2JXx3-37" value="Titulação" style="ellipse;whiteSpace=wrap;html=1;align=left;spacingLeft=30;fontSize=10;" vertex="1" parent="1">
          <mxGeometry x="150" y="323" width="28" height="16" as="geometry" />
        </mxCell>
        <mxCell id="EE4DRP4h_-agsnP2JXx3-101" style="edgeStyle=orthogonalEdgeStyle;rounded=0;orthogonalLoop=1;jettySize=auto;html=1;exitX=0.5;exitY=0;exitDx=0;exitDy=0;entryX=0.071;entryY=0.055;entryDx=0;entryDy=0;entryPerimeter=0;fontSize=9;endArrow=none;endFill=0;" edge="1" parent="1" source="EE4DRP4h_-agsnP2JXx3-38" target="4wxQm1VJwezY7HKqNcHJ-29">
          <mxGeometry relative="1" as="geometry" />
        </mxCell>
        <mxCell id="EE4DRP4h_-agsnP2JXx3-38" value="Ministrados" style="whiteSpace=wrap;html=1;align=center;fontSize=10;" vertex="1" parent="1">
          <mxGeometry x="232.5" y="316" width="75" height="30" as="geometry" />
        </mxCell>
        <mxCell id="EE4DRP4h_-agsnP2JXx3-102" style="edgeStyle=orthogonalEdgeStyle;rounded=0;orthogonalLoop=1;jettySize=auto;html=1;exitX=0.5;exitY=0;exitDx=0;exitDy=0;entryX=0;entryY=0.75;entryDx=0;entryDy=0;fontSize=9;endArrow=none;endFill=0;" edge="1" parent="1" source="EE4DRP4h_-agsnP2JXx3-39" target="4wxQm1VJwezY7HKqNcHJ-29">
          <mxGeometry relative="1" as="geometry" />
        </mxCell>
        <mxCell id="EE4DRP4h_-agsnP2JXx3-39" value="Não Ministrados" style="whiteSpace=wrap;html=1;align=center;fontSize=10;" vertex="1" parent="1">
          <mxGeometry x="337.5" y="316" width="75" height="30" as="geometry" />
        </mxCell>
        <mxCell id="EE4DRP4h_-agsnP2JXx3-73" value="" style="edgeStyle=orthogonalEdgeStyle;rounded=0;orthogonalLoop=1;jettySize=auto;html=1;fontSize=10;endArrow=none;endFill=0;" edge="1" parent="1" source="EE4DRP4h_-agsnP2JXx3-46" target="EE4DRP4h_-agsnP2JXx3-2">
          <mxGeometry relative="1" as="geometry" />
        </mxCell>
        <mxCell id="EE4DRP4h_-agsnP2JXx3-74" style="edgeStyle=orthogonalEdgeStyle;rounded=0;orthogonalLoop=1;jettySize=auto;html=1;exitX=0;exitY=0.5;exitDx=0;exitDy=0;entryX=1;entryY=0.5;entryDx=0;entryDy=0;fontSize=10;endArrow=none;endFill=0;" edge="1" parent="1" source="EE4DRP4h_-agsnP2JXx3-46" target="EE4DRP4h_-agsnP2JXx3-15">
          <mxGeometry relative="1" as="geometry" />
        </mxCell>
        <mxCell id="EE4DRP4h_-agsnP2JXx3-46" value="Existem em" style="shape=rhombus;perimeter=rhombusPerimeter;whiteSpace=wrap;html=1;align=center;fontSize=10;" vertex="1" parent="1">
          <mxGeometry x="420" y="220" width="80" height="46" as="geometry" />
        </mxCell>
        <mxCell id="EE4DRP4h_-agsnP2JXx3-72" style="edgeStyle=orthogonalEdgeStyle;rounded=0;orthogonalLoop=1;jettySize=auto;html=1;exitX=1;exitY=0.5;exitDx=0;exitDy=0;entryX=0;entryY=0;entryDx=0;entryDy=0;fontSize=10;endArrow=none;endFill=0;" edge="1" parent="1" source="EE4DRP4h_-agsnP2JXx3-71" target="EE4DRP4h_-agsnP2JXx3-2">
          <mxGeometry relative="1" as="geometry">
            <Array as="points">
              <mxPoint x="530" y="160" />
              <mxPoint x="530" y="220" />
            </Array>
          </mxGeometry>
        </mxCell>
        <mxCell id="EE4DRP4h_-agsnP2JXx3-71" value="Oferece" style="shape=rhombus;perimeter=rhombusPerimeter;whiteSpace=wrap;html=1;align=center;" vertex="1" parent="1">
          <mxGeometry x="270" y="130" width="90" height="50" as="geometry" />
        </mxCell>
        <mxCell id="EE4DRP4h_-agsnP2JXx3-76" style="edgeStyle=orthogonalEdgeStyle;rounded=0;orthogonalLoop=1;jettySize=auto;html=1;exitX=1;exitY=0;exitDx=0;exitDy=0;entryX=0.5;entryY=1;entryDx=0;entryDy=0;fontSize=10;endArrow=none;endFill=0;" edge="1" parent="1" source="EE4DRP4h_-agsnP2JXx3-75" target="EE4DRP4h_-agsnP2JXx3-38">
          <mxGeometry relative="1" as="geometry">
            <Array as="points">
              <mxPoint x="253" y="394" />
              <mxPoint x="253" y="366" />
              <mxPoint x="270" y="366" />
            </Array>
          </mxGeometry>
        </mxCell>
        <mxCell id="EE4DRP4h_-agsnP2JXx3-77" style="edgeStyle=orthogonalEdgeStyle;rounded=0;orthogonalLoop=1;jettySize=auto;html=1;exitX=0;exitY=0.5;exitDx=0;exitDy=0;entryX=0.5;entryY=1;entryDx=0;entryDy=0;fontSize=10;endArrow=none;endFill=0;" edge="1" parent="1" source="EE4DRP4h_-agsnP2JXx3-75" target="EE4DRP4h_-agsnP2JXx3-17">
          <mxGeometry relative="1" as="geometry" />
        </mxCell>
        <mxCell id="EE4DRP4h_-agsnP2JXx3-75" value="Por" style="shape=rhombus;perimeter=rhombusPerimeter;whiteSpace=wrap;html=1;align=center;" vertex="1" parent="1">
          <mxGeometry x="133" y="370" width="90" height="50" as="geometry" />
        </mxCell>
        <mxCell id="EE4DRP4h_-agsnP2JXx3-90" style="edgeStyle=orthogonalEdgeStyle;rounded=0;orthogonalLoop=1;jettySize=auto;html=1;exitX=0.5;exitY=0;exitDx=0;exitDy=0;entryX=0;entryY=1;entryDx=0;entryDy=0;fontSize=9;endArrow=none;endFill=0;" edge="1" parent="1" source="EE4DRP4h_-agsnP2JXx3-88" target="EE4DRP4h_-agsnP2JXx3-11">
          <mxGeometry relative="1" as="geometry" />
        </mxCell>
        <mxCell id="EE4DRP4h_-agsnP2JXx3-88" value="20% de desconto" style="ellipse;whiteSpace=wrap;html=1;align=left;spacingLeft=30;fontSize=9;" vertex="1" parent="1">
          <mxGeometry x="384.5" y="730" width="28" height="16" as="geometry" />
        </mxCell>
        <mxCell id="EE4DRP4h_-agsnP2JXx3-98" style="edgeStyle=orthogonalEdgeStyle;rounded=0;orthogonalLoop=1;jettySize=auto;html=1;exitX=0.5;exitY=0;exitDx=0;exitDy=0;entryX=0.5;entryY=1;entryDx=0;entryDy=0;fontSize=9;endArrow=none;endFill=0;" edge="1" parent="1" source="EE4DRP4h_-agsnP2JXx3-91" target="EE4DRP4h_-agsnP2JXx3-12">
          <mxGeometry relative="1" as="geometry" />
        </mxCell>
        <mxCell id="EE4DRP4h_-agsnP2JXx3-91" value="15% de desconto" style="ellipse;whiteSpace=wrap;html=1;align=left;spacingLeft=30;fontSize=9;" vertex="1" parent="1">
          <mxGeometry x="525" y="746" width="28" height="16" as="geometry" />
        </mxCell>
        <mxCell id="EE4DRP4h_-agsnP2JXx3-97" style="edgeStyle=orthogonalEdgeStyle;rounded=0;orthogonalLoop=1;jettySize=auto;html=1;exitX=0.5;exitY=0;exitDx=0;exitDy=0;entryX=0.5;entryY=1;entryDx=0;entryDy=0;fontSize=9;endArrow=none;endFill=0;" edge="1" parent="1" source="EE4DRP4h_-agsnP2JXx3-92" target="EE4DRP4h_-agsnP2JXx3-13">
          <mxGeometry relative="1" as="geometry" />
        </mxCell>
        <mxCell id="EE4DRP4h_-agsnP2JXx3-92" value="10% de desconto" style="ellipse;whiteSpace=wrap;html=1;align=left;spacingLeft=30;fontSize=9;" vertex="1" parent="1">
          <mxGeometry x="618.5" y="746" width="28" height="16" as="geometry" />
        </mxCell>
        <mxCell id="EE4DRP4h_-agsnP2JXx3-96" style="edgeStyle=orthogonalEdgeStyle;rounded=0;orthogonalLoop=1;jettySize=auto;html=1;exitX=0.5;exitY=0;exitDx=0;exitDy=0;entryX=0.5;entryY=1;entryDx=0;entryDy=0;fontSize=9;endArrow=none;endFill=0;" edge="1" parent="1" source="EE4DRP4h_-agsnP2JXx3-95" target="EE4DRP4h_-agsnP2JXx3-14">
          <mxGeometry relative="1" as="geometry" />
        </mxCell>
        <mxCell id="EE4DRP4h_-agsnP2JXx3-95" value="Sem desconto" style="ellipse;whiteSpace=wrap;html=1;align=left;spacingLeft=30;fontSize=9;" vertex="1" parent="1">
          <mxGeometry x="708" y="746" width="28" height="16" as="geometry" />
        </mxCell>
        <mxCell id="EE4DRP4h_-agsnP2JXx3-106" style="edgeStyle=orthogonalEdgeStyle;rounded=0;orthogonalLoop=1;jettySize=auto;html=1;exitX=1;exitY=1;exitDx=0;exitDy=0;entryX=0.25;entryY=0;entryDx=0;entryDy=0;fontSize=9;endArrow=none;endFill=0;" edge="1" parent="1" source="EE4DRP4h_-agsnP2JXx3-103" target="EE4DRP4h_-agsnP2JXx3-15">
          <mxGeometry relative="1" as="geometry">
            <Array as="points">
              <mxPoint x="266" y="220" />
              <mxPoint x="304" y="220" />
            </Array>
          </mxGeometry>
        </mxCell>
        <mxCell id="EE4DRP4h_-agsnP2JXx3-103" value="Nome" style="ellipse;whiteSpace=wrap;html=1;align=left;spacingLeft=30;fontSize=9;" vertex="1" parent="1">
          <mxGeometry x="242" y="190" width="28" height="16" as="geometry" />
        </mxCell>
        <mxCell id="EE4DRP4h_-agsnP2JXx3-107" style="edgeStyle=orthogonalEdgeStyle;rounded=0;orthogonalLoop=1;jettySize=auto;html=1;exitX=0.5;exitY=1;exitDx=0;exitDy=0;entryX=0.954;entryY=0.024;entryDx=0;entryDy=0;entryPerimeter=0;fontSize=9;endArrow=none;endFill=0;" edge="1" parent="1" source="EE4DRP4h_-agsnP2JXx3-104" target="EE4DRP4h_-agsnP2JXx3-15">
          <mxGeometry relative="1" as="geometry" />
        </mxCell>
        <mxCell id="EE4DRP4h_-agsnP2JXx3-104" value="Ementa" style="ellipse;whiteSpace=wrap;html=1;align=left;spacingLeft=30;fontSize=9;" vertex="1" parent="1">
          <mxGeometry x="340" y="190" width="28" height="16" as="geometry" />
        </mxCell>
      </root>
    </mxGraphModel>
  </diagram>
</mxfile>
